<svg width="20" height="20" viewBox="0 0 20 20" fill="none" xmlns="http://www.w3.org/2000/svg">
<path d="M13.7571 16.6311L10.6636 19.7247C10.2974 20.0909 9.70387 20.0909 9.33773 19.7247L6.24414 16.6311C5.65355 16.0406 6.07184 15.0307 6.90707 15.0308H8.90559L8.90555 11.093H4.96789V13.0916C4.96789 13.9268 3.95809 14.3451 3.36746 13.7545L0.273867 10.6609C-0.0922656 10.2948 -0.0922656 9.70117 0.273867 9.33508L3.36746 6.24148C3.95805 5.65089 4.96789 6.06917 4.96789 6.90441V8.90555H8.90555V4.96788H6.90438C6.06914 4.96788 5.65086 3.95808 6.24145 3.36745L9.33504 0.273852C9.70117 -0.092281 10.2947 -0.092281 10.6609 0.273852L13.7545 3.36745C14.345 3.95804 13.9268 4.96788 13.0915 4.96788H11.093V8.90555H15.0307V6.90703C15.0307 6.07179 16.0405 5.65351 16.6311 6.2441L19.7246 9.33769C20.0908 9.70383 20.0908 10.2974 19.7246 10.6635L16.6311 13.7571C16.0405 14.3477 15.0306 13.9294 15.0307 13.0942V11.093H11.093V15.0307H13.0942C13.9295 15.0307 14.3477 16.0405 13.7571 16.6311Z" fill="black" fill-opacity="0.5413"/>
</svg>
