<svg width="20" height="16" viewBox="0 0 20 16" fill="none" xmlns="http://www.w3.org/2000/svg">
<path d="M0 4.56249V3.93749C0 3.41972 0.419727 2.99999 0.9375 2.99999H15V1.12499C15 0.29034 16.0117 -0.126652 16.6004 0.462059L19.7254 3.58706C20.0915 3.95319 20.0915 4.54679 19.7254 4.91288L16.6004 8.03788C16.0139 8.62429 15 8.21311 15 7.37499V5.49999H0.9375C0.419727 5.49999 0 5.08026 0 4.56249ZM19.0625 10.5H5V8.62499C5 7.79241 3.98977 7.37186 3.39957 7.96206L0.27457 11.0871C-0.0915234 11.4532 -0.0915234 12.0468 0.27457 12.4129L3.39957 15.5379C3.9866 16.1249 5 15.7124 5 14.875V13H19.0625C19.5803 13 20 12.5803 20 12.0625V11.4375C20 10.9197 19.5803 10.5 19.0625 10.5Z" fill="black" fill-opacity="0.5413"/>
</svg>
