<?xml version="1.0" encoding="utf-8"?>
<!-- Generator: Adobe Illustrator 23.0.1, SVG Export Plug-In . SVG Version: 6.00 Build 0)  -->
<svg width="30" height="30" version="1.1" id="Layer_1" xmlns="http://www.w3.org/2000/svg" xmlns:xlink="http://www.w3.org/1999/xlink" x="0px" y="0px"
	 viewBox="0 0 25 25" style="enable-background:new 0 0 25 25;" xml:space="preserve">
	<path d="M14.3,17c-0.3-0.7-0.6-1.6-0.5-2.5c0-0.9,0.6-1.8,1.4-2.3c0.8-0.5,1.7-0.7,2.5-0.8c0.9-0.1,1.8,0,2.7,0.3
		c0.9,0.3,1.7,0.8,2.4,1.6c0.6,0.8,0.9,1.7,1.1,2.7c0.2,1.9-0.1,3.7-1.1,5.4c-0.5,0.8-1.1,1.6-1.9,2.2c-0.8,0.6-1.7,1-2.7,1.2
		c-2,0.4-4.1-0.1-5.7-1.2c-0.8-0.6-1.5-1.3-2-2.1c-0.5-0.8-0.9-1.8-1-2.7c-0.2-1.9,0.4-3.7,1.5-5l0.3,0.1c-0.3,1.6-0.2,3.2,0.3,4.4
		c0.5,1.2,1.4,2.2,2.6,2.8c1.1,0.6,2.4,0.9,3.6,0.8c0.6,0,1.2-0.2,1.7-0.5c0.5-0.3,1-0.8,1.4-1.3c0.8-1.1,1.2-2.5,1.2-3.8
		c0-0.7-0.2-1.3-0.5-1.8c-0.3-0.5-0.9-0.9-1.5-1.2c-1.3-0.6-2.9-0.7-4.2-0.1c-0.6,0.3-1.1,0.9-1.2,1.6c-0.2,0.7-0.1,1.5,0.2,2.3
		L14.3,17z"/>

<path fill="#999" d="M16.2,9.7c0,0-1.8,2.6-1.8,3.6s0.8,1.8,1.8,1.8s1.8-0.8,1.8-1.8S16.2,9.7,16.2,9.7z M16,6.8L10.3,1
	c-0.2-0.2-0.4-0.3-0.6-0.3C9.4,0.7,9.2,0.8,9,1L6.8,3.3L4.4,0.9c-0.2-0.2-0.5-0.2-0.6,0L3.2,1.5C3,1.7,3,2,3.2,2.1l2.4,2.4L2.9,7.2
	c-1,1-1,2.7,0,3.8l3.2,3.3C6.7,14.7,7.3,15,8,15c0.7,0,1.4-0.3,1.9-0.8L16,8C16.3,7.7,16.3,7.1,16,6.8z M12.8,8.8H4
	c0-0.1,0.1-0.2,0.2-0.3l0.4-0.4l2.2-2.3l1.6,1.6c0.3,0.3,0.9,0.3,1.2,0c0.3-0.3,0.3-0.9,0-1.3L8,4.5l1.6-1.6l4.5,4.5L12.8,8.8z"/>
</svg>
