<?xml version="1.0" encoding="utf-8"?>
<svg version="1.1" xmlns="http://www.w3.org/2000/svg" xmlns:xlink="http://www.w3.org/1999/xlink" x="0px" y="0px"
	 viewBox="0 0 30 27" width="30" height="27">
<style type="text/css">
	.st0{fill:#999;}
</style>
<path class="st0" d="M26.7,16.9c0,0-3.3,4.9-3.3,6.8c0,1.9,1.5,3.4,3.3,3.4c1.8,0,3.3-1.5,3.3-3.4C30,21.8,26.7,16.9,26.7,16.9z
	 M26.2,11.4l-10.8-11C15,0.2,14.6,0,14.2,0c-0.4,0-0.9,0.2-1.2,0.5L8.8,4.8L4.3,0.3c-0.3-0.3-0.9-0.3-1.2,0L1.9,1.4
	c-0.3,0.3-0.3,0.9,0,1.2l4.5,4.5l-4.9,5c-2,2-2,5.2,0,7.2l6.1,6.2c1,1,2.3,1.5,3.5,1.5c1.3,0,2.6-0.5,3.5-1.5l11.5-11.7
	C26.8,13.2,26.8,12.1,26.2,11.4z M20.1,15.2H3.4c0.1-0.2,0.2-0.4,0.4-0.6l0.7-0.7l4.3-4.3l3.1,3.1c0.7,0.7,1.7,0.7,2.4,0
	c0.7-0.7,0.7-1.7,0-2.4l-3.1-3.1l3.1-3.1l8.5,8.6L20.1,15.2z"/>
</svg>
