<svg width="25" height="25" viewBox="0 0 20 20" fill="#999" xmlns="http://www.w3.org/2000/svg">
<path d="M1.98242 13.0176C1.51367 13.4863 1.25 14.1223 1.25 14.7856V16.5625L0 18.75L1.25 20L3.4375 18.75H5.21445C5.87734 18.75 6.51328 18.4867 6.98203 18.018L11.9289 13.0719L6.92891 8.07189L1.98242 13.0176ZM18.9016 1.09845C17.4379 -0.366394 15.0625 -0.366394 13.5988 1.09845L10.5875 4.10978L10.0758 3.59806C9.70703 3.22931 9.11289 3.23439 8.75 3.59806L7.14961 5.19845C6.78359 5.56447 6.78359 6.15822 7.14961 6.52423L13.4754 12.85C13.8441 13.2188 14.4383 13.2137 14.8012 12.85L16.4016 11.25C16.7676 10.884 16.7676 10.2902 16.4016 9.92423L15.8898 9.41251L18.9012 6.40118C20.3664 4.93712 20.3664 2.5629 18.9016 1.09845Z"/>
</svg>
