<svg xmlns="http://www.w3.org/2000/svg" width="560" height="220" viewBox="0 0 560 220"><path fill="#F8F7F4" d="M560 205c0 8.25-6.75 15-15 15H15c-8.25 0-15-6.75-15-15V15C0 6.75 6.75 0 15 0h530c8.25 0 15 6.75 15 15v190z"/><g fill="#F8F7F4"><path d="M545 0H20.729L0 20.729V205c0 8.25 6.75 15 15 15h530c8.25 0 15-6.75 15-15V15c0-8.25-6.75-15-15-15zM10.246.79A15.107 15.107 0 0 0 .79 10.246L10.246.79z"/></g><path fill="#92CDFF" d="M20.741 0H15c-1.655 0-3.245.283-4.737.784L.784 10.263A14.848 14.848 0 0 0 0 15v5.741L20.741 0z"/><path fill="#FE9E90" d="M0 40.116L40.116 0h-9.693L0 30.423z"/><path fill="#92CDFF" d="M0 59.504L59.504 0h-9.693L0 49.811z"/><path fill="#FE9E90" d="M0 78.891L78.891 0h-9.694L0 69.197z"/><path fill="#92CDFF" d="M0 98.278L98.278 0h-9.694L0 88.584z"/><path fill="#FE9E90" d="M0 117.665L117.665 0h-9.694L0 107.971z"/><path fill="#92CDFF" d="M0 137.052L137.052 0h-9.694L0 127.358z"/><path fill="#FE9E90" d="M0 156.438L156.438 0h-9.693L0 146.745z"/><path fill="#92CDFF" d="M0 175.826L175.826 0h-9.693L0 166.134z"/><path fill="#FE9E90" d="M0 195.213L195.213 0h-9.693L0 185.521z"/><path fill="#92CDFF" d="M204.907 0L0 204.907V205c0 2.746.761 5.317 2.063 7.538L214.601 0h-9.694z"/><path fill="#FE9E90" d="M14.036 219.951L233.987 0h-9.694L6.775 217.519a14.889 14.889 0 0 0 7.261 2.432z"/><path fill="#92CDFF" d="M33.375 220l220-220h-9.695L23.681 220z"/><path fill="#FE9E90" d="M52.762 220l220-220h-9.695L43.068 220z"/><path fill="#92CDFF" d="M72.149 220L292.148 0h-9.694L62.455 220z"/><path fill="#FE9E90" d="M91.536 220L311.535 0h-9.693l-220 220z"/><path fill="#92CDFF" d="M110.923 220l220-220h-9.694l-220 220z"/><path fill="#FE9E90" d="M130.31 220l220-220h-9.695L120.616 220z"/><path fill="#92CDFF" d="M149.697 220L369.696 0h-9.693l-220 220z"/><path fill="#FE9E90" d="M169.084 220L389.083 0h-9.692L159.39 220z"/><path fill="#92CDFF" d="M188.471 220L408.472 0h-9.695l-220 220z"/><path fill="#FE9E90" d="M207.858 220L427.857 0h-9.693L198.165 220z"/><path fill="#92CDFF" d="M227.246 220L447.247 0h-9.695l-220 220z"/><path fill="#FE9E90" d="M246.632 220L466.633 0h-9.695l-220 220z"/><path fill="#92CDFF" d="M266.021 220l220-220h-9.696l-220 220z"/><path fill="#FE9E90" d="M285.406 220l220-220h-9.693l-220 220z"/><path fill="#92CDFF" d="M304.794 220l220-220H515.1l-220 220z"/><path fill="#FE9E90" d="M324.181 220l220-220h-9.695l-220 220z"/><path fill="#92CDFF" d="M343.568 220L557.22 6.349a15.177 15.177 0 0 0-5.137-4.557L333.874 220h9.694z"/><path fill="#FE9E90" d="M362.955 220L560 22.955V15c0-.555-.036-1.102-.096-1.642L353.262 220h9.693z"/><path fill="#92CDFF" d="M382.342 220L560 42.342v-9.694L372.648 220z"/><path fill="#FE9E90" d="M401.729 220L560 61.729v-9.692L392.036 220z"/><path fill="#92CDFF" d="M421.117 220L560 81.118v-9.696L411.423 220z"/><path fill="#FE9E90" d="M440.504 220L560 100.504v-9.695L430.81 220z"/><path fill="#92CDFF" d="M459.892 220L560 119.892v-9.696L450.196 220z"/><path fill="#FE9E90" d="M479.278 220L560 139.278v-9.695L469.583 220z"/><path fill="#92CDFF" d="M498.665 220L560 158.665v-9.693L488.972 220z"/><path fill="#FE9E90" d="M518.052 220L560 178.052v-9.695L508.357 220z"/><path fill="#92CDFF" d="M537.438 220L560 197.438v-9.692L527.746 220z"/><path fill="#FE9E90" d="M559.798 207.335l-12.463 12.463c6.386-1.011 11.452-6.077 12.463-12.463z"/></svg>