<svg xmlns="http://www.w3.org/2000/svg" width="49" height="49" viewBox="0 0 49 49"><g fill="#323232"><path d="M24.5 0C10.969 0 0 10.969 0 24.5S10.969 49 24.5 49 49 38.031 49 24.5 38.031 0 24.5 0zm0 47C12.093 47 2 36.906 2 24.5 2 12.093 12.093 2 24.5 2 36.906 2 47 12.093 47 24.5 47 36.906 36.906 47 24.5 47z"/><path d="M34.811 19.342c.86-1.711 1.88-4.987.433-9.482a1 1 0 0 0-1.825-.182c-1.271 2.268-4.038 5.927-6.047 6.094-.03.002-.054.019-.083.024A16.242 16.242 0 0 0 24.5 15.5c-.103 0-1.311.009-2.801.292-.025-.004-.045-.019-.071-.021-2.004-.167-4.773-3.827-6.048-6.095a1 1 0 1 0-1.824.183c-1.448 4.494-.427 7.771.433 9.482-1.744.22-3.954.777-4.757 2.188-.388.682-.38 1.464.024 2.201.514.939 1.399 1.245 2.334 1.245.816 0 1.668-.233 2.349-.482-.004.54.026 1.08.129 1.612.288 1.496 1.131 3.636 1.748 5.197.188.479.396 1.004.509 1.324-.235.614-.672 1.812-.766 2.484-.112.801.114 2.147 1.121 3.306 1.443 1.659 4.006 2.5 7.619 2.5 3.612 0 6.176-.841 7.619-2.5 1.007-1.158 1.233-2.505 1.121-3.306-.094-.673-.53-1.87-.767-2.484.114-.319.32-.843.509-1.32.617-1.563 1.462-3.704 1.75-5.201a8.483 8.483 0 0 0 .135-1.61c.679.248 1.528.48 2.342.48.936 0 1.82-.306 2.334-1.245.404-.737.412-1.519.024-2.201-.801-1.41-3.011-1.967-4.755-2.187zm-.953-6.634c.428 3.06-.477 5.157-1.031 6.112a9.905 9.905 0 0 0-.798-.872c-.544-.526-1.199-.934-1.891-1.258 1.483-1.051 2.801-2.673 3.72-3.982zm-18.716.002c.916 1.304 2.229 2.919 3.706 3.97-.701.329-1.359.744-1.892 1.283-.276.279-.533.57-.771.872-.549-.943-1.468-3.054-1.043-6.125zM11.21 22.77c-.089-.163-.063-.21-.04-.25.223-.391 1.387-1.006 3.609-1.233-.116.29-.217.582-.302.878-1.265.673-2.998 1.091-3.267.605zm21.558 2.959c-.252 1.313-1.058 3.354-1.646 4.844-.398 1.01-.609 1.552-.683 1.877l-.066.302.114.287c.283.71.711 1.908.772 2.351.001.009.096.858-.649 1.716-.72.826-2.363 1.812-6.11 1.812-3.747 0-5.391-.986-6.11-1.812-.746-.857-.651-1.707-.65-1.716.062-.441.489-1.641.772-2.352l.114-.286-.066-.302c-.072-.326-.284-.869-.683-1.881-.587-1.489-1.392-3.528-1.645-4.841-.422-2.198.379-4.575 2.145-6.358 1.513-1.528 4.933-1.868 6.123-1.871 1.166 0 4.539.339 6.139 1.886 2.081 2.014 2.465 4.597 2.129 6.344zm5.021-2.959c-.263.479-1.974.07-3.238-.592a9.437 9.437 0 0 0-.297-.888c2.198.23 3.354.84 3.575 1.229.024.041.05.087-.04.251z"/></g></svg>