<svg xmlns="http://www.w3.org/2000/svg" width="49" height="49" viewBox="0 0 49 49"><g fill="#323232"><path d="M24.5 0C10.969 0 0 10.969 0 24.5S10.969 49 24.5 49 49 38.031 49 24.5 38.031 0 24.5 0zm0 47C12.093 47 2 36.906 2 24.5 2 12.093 12.093 2 24.5 2 36.906 2 47 12.093 47 24.5 47 36.906 36.906 47 24.5 47z"/><path d="M34.807 26.756c-.45-9.493-9.197-18.693-9.586-19.097-.015-.015-.033-.023-.048-.037a.942.942 0 0 0-.118-.09.945.945 0 0 0-.13-.077c-.018-.009-.032-.022-.051-.03-.027-.011-.056-.011-.083-.02a.898.898 0 0 0-.297-.044c-.045 0-.089.002-.134.008a.957.957 0 0 0-.158.038c-.025.008-.052.008-.076.018-.018.007-.031.021-.049.029a.896.896 0 0 0-.133.079.95.95 0 0 0-.118.091c-.015.013-.033.021-.046.036-.389.404-9.14 9.608-9.587 19.105-.008.067-.017.133-.011.202-.013.363-.017.727-.003 1.091.369 10.256 9.978 12.82 10.075 12.845a.995.995 0 0 0 .494 0c.097-.024 9.706-2.589 10.074-12.845.013-.363.009-.727-.003-1.089.006-.073-.004-.142-.012-.213zM16.783 23.25c2.219 2.058 5.368 3.521 6.717 4.091v4.552c-2.448-1.196-6.219-3.341-7.302-5.228a17.06 17.06 0 0 1 .585-3.415zm2.024-5.096c1.513 1.688 3.602 2.646 4.693 3.059v3.94c-1.654-.76-4.424-2.216-6.016-4.043a29.164 29.164 0 0 1 1.323-2.956zm12.711 2.954c-1.59 1.824-4.362 3.283-6.018 4.044v-3.939c1.092-.413 3.183-1.372 4.695-3.062.489.949.935 1.94 1.323 2.957zM25.5 19.047v-8.008a45.239 45.239 0 0 1 3.651 5.229c-.953 1.374-2.536 2.276-3.651 2.779zm0 12.846v-4.552c1.35-.569 4.499-2.034 6.719-4.092.305 1.128.515 2.273.584 3.417-1.083 1.883-4.855 4.029-7.303 5.227zm-2-12.843c-1.113-.5-2.694-1.399-3.649-2.779a45.379 45.379 0 0 1 3.649-5.229v8.008zm-7.117 10.775c2.328 1.983 5.69 3.629 7.117 4.281v4.403c-2.092-.904-6.162-3.331-7.117-8.684zm9.117 8.696v-4.415c1.428-.653 4.792-2.3 7.121-4.284-.95 5.411-5.02 7.813-7.121 8.699z"/></g></svg>