<svg version="1.1" id="Layer_1" xmlns="http://www.w3.org/2000/svg" xmlns:xlink="http://www.w3.org/1999/xlink" x="0px" y="0px"
	 width="61px" height="61px" viewBox="0 0 61 61" enable-background="new 0 0 61 61" xml:space="preserve">
<circle fill="#FFFFFF" cx="30.5" cy="30.5" r="30.5"/>

	<path fill="#231F20" d="M19.985,18.27c-0.915,2.683-1.718,5.384-2.472,8.094c-0.543-2.863-0.921-5.756-0.958-8.715
		c-0.005-0.431-1.939-0.11-1.932,0.518c0.052,4.243,0.8,8.354,1.747,12.432c-1.196,4.58-2.311,9.18-3.579,13.771
		c-0.109,0.394,1.771,0.138,1.904-0.344c0.902-3.265,1.726-6.535,2.556-9.8c0.805,3.204,1.644,6.407,2.273,9.657
		c0.098,0.508,2.041,0.045,1.932-0.518c-0.864-4.462-2.12-8.836-3.146-13.247c1.068-4.086,2.202-8.157,3.578-12.191
		C22.012,17.566,20.151,17.782,19.985,18.27z"/>
	<path fill="#231F20" d="M34.395,18.798c0.049-1.047-1.919-0.794-1.963,0.128c-0.004,0.08-0.004,0.159-0.008,0.238
		c-0.039,0.065-0.084,0.128-0.101,0.204c-1.004,4.463-2.611,8.729-4.056,13.06c-0.644,1.93-1.139,3.898-1.666,5.856
		c-0.139-6.623-0.135-13.237-0.165-19.871c-0.005-1.042-1.965-0.769-1.961,0.134c0.037,8.337,0.018,16.641,0.303,24.971
		c-0.031,0.095-0.05,0.193-0.034,0.301c0.021,0.148,0.042,0.297,0.064,0.445c0.123,0.856,1.959,0.48,1.944-0.317
		c0.005-0.011,0.016-0.018,0.021-0.029c1.636-4.171,2.478-8.591,3.894-12.838c0.521-1.558,1.048-3.108,1.561-4.662
		c-0.071,5.987,0.058,11.969,0.211,17.961c0.026,1.012,1.58,0.771,1.91,0.065c0.019-0.04,0.037-0.079,0.056-0.119
		c0.112-0.239,0.088-0.423-0.015-0.558C34.179,35.434,34.001,27.132,34.395,18.798z"/>
	<path fill="#231F20" d="M47.32,17.66c-3.158,0.38-6.312,0.227-9.478,0.048c-0.491-0.028-2.24,0.851-1.221,0.908
		c1.093,0.062,2.182,0.109,3.271,0.145c-0.093,0.081-0.161,0.167-0.157,0.265c0.295,8.408-1.054,17.239,0.191,25.564
		c0.063,0.424,2.01,0.005,1.932-0.518c-1.229-8.229,0.069-16.951-0.185-25.27c1.776,0.012,3.551-0.052,5.33-0.266
		C47.86,18.434,48.672,17.497,47.32,17.66z"/>

</svg>
