<svg xmlns="http://www.w3.org/2000/svg" width="49" height="49" viewBox="0 0 49 49"><g fill="#323232"><path d="M24.5 0C10.969 0 0 10.969 0 24.5S10.969 49 24.5 49 49 38.031 49 24.5 38.031 0 24.5 0zm0 47C12.093 47 2 36.906 2 24.5 2 12.093 12.093 2 24.5 2 36.906 2 47 12.093 47 24.5 47 36.906 36.906 47 24.5 47z"/><path d="M24.5 7.625c-4.355 0-7.94 3.278-8.436 7.5H16v16.917h17V15.125h-.063c-.497-4.222-4.082-7.5-8.437-7.5zM31 30.042H18v-9.257c.275.337.705.631 1.542.631 1.292 0 2.125-.713 2.125-1.625v-.875a.854.854 0 1 1 1.708 0c0 .009-.005.017-.005.025 0 .007.005.01.005.017v3.292s-.031 1.833 2.125 1.833c2.109 0 2.125-1.75 2.125-1.75v-2.25h.001l-.001-.005a1.344 1.344 0 0 1 2.688 0c0 .031.021.088.021.088s.034.609.667.894v8.982zM23 40.125a1.5 1.5 0 1 0 3 0V33h-3v7.125z"/></g></svg>