<?xml version="1.0" encoding="utf-8"?>
<!-- Generator: Adobe Illustrator 15.0.0, SVG Export Plug-In . SVG Version: 6.00 Build 0)  -->
<!DOCTYPE svg PUBLIC "-//W3C//DTD SVG 1.1//EN" "http://www.w3.org/Graphics/SVG/1.1/DTD/svg11.dtd">
<svg version="1.1" xmlns="http://www.w3.org/2000/svg" xmlns:xlink="http://www.w3.org/1999/xlink" x="0px" y="0px" width="49px"
	 height="49px" viewBox="0 0 49 49" enable-background="new 0 0 49 49" xml:space="preserve">
<g id="Layer_1">
</g>
<g id="Layer_2">
	<g>
		<path fill="#323232" d="M24.5,0C10.969,0,0,10.969,0,24.5C0,38.031,10.969,49,24.5,49C38.031,49,49,38.031,49,24.5
			C49,10.969,38.031,0,24.5,0z M24.5,47C12.093,47,2,36.906,2,24.5C2,12.093,12.093,2,24.5,2C36.906,2,47,12.093,47,24.5
			C47,36.906,36.906,47,24.5,47z"/>
		<path fill="#323232" d="M34.811,19.342c0.86-1.711,1.88-4.987,0.433-9.482c-0.122-0.378-0.457-0.649-0.853-0.688
			c-0.39-0.04-0.777,0.159-0.972,0.506c-1.271,2.268-4.038,5.927-6.047,6.094c-0.03,0.002-0.054,0.019-0.083,0.024
			C25.799,15.509,24.6,15.5,24.5,15.5c-0.103,0-1.311,0.009-2.801,0.292c-0.025-0.004-0.045-0.019-0.071-0.021
			c-2.004-0.167-4.773-3.827-6.048-6.095c-0.195-0.346-0.577-0.543-0.972-0.505c-0.396,0.04-0.73,0.31-0.852,0.688
			c-1.448,4.494-0.427,7.771,0.433,9.482c-1.744,0.22-3.954,0.777-4.757,2.188c-0.388,0.682-0.38,1.464,0.024,2.201
			c0.514,0.939,1.399,1.245,2.334,1.245c0.816,0,1.668-0.233,2.349-0.482c-0.004,0.54,0.026,1.08,0.129,1.612
			c0.288,1.496,1.131,3.636,1.748,5.197c0.188,0.479,0.396,1.004,0.509,1.324c-0.235,0.614-0.672,1.812-0.766,2.484
			c-0.112,0.801,0.114,2.147,1.121,3.306c1.443,1.659,4.006,2.5,7.619,2.5c3.612,0,6.176-0.841,7.619-2.5
			c1.007-1.158,1.233-2.505,1.121-3.306c-0.094-0.673-0.53-1.87-0.767-2.484c0.114-0.319,0.32-0.843,0.509-1.32
			c0.617-1.563,1.462-3.704,1.75-5.201c0.103-0.535,0.135-1.073,0.135-1.61c0.679,0.248,1.528,0.48,2.342,0.48
			c0.936,0,1.82-0.306,2.334-1.245c0.404-0.737,0.412-1.519,0.024-2.201C38.765,20.119,36.555,19.562,34.811,19.342z M33.858,12.708
			c0.428,3.06-0.477,5.157-1.031,6.112c-0.246-0.303-0.512-0.595-0.798-0.872c-0.544-0.526-1.199-0.934-1.891-1.258
			C31.621,15.639,32.939,14.017,33.858,12.708z M15.142,12.71c0.916,1.304,2.229,2.919,3.706,3.97
			c-0.701,0.329-1.359,0.744-1.892,1.283c-0.276,0.279-0.533,0.57-0.771,0.872C15.636,17.892,14.717,15.781,15.142,12.71z
			 M11.21,22.77c-0.089-0.163-0.063-0.21-0.04-0.25c0.223-0.391,1.387-1.006,3.609-1.233c-0.116,0.29-0.217,0.582-0.302,0.878
			C13.212,22.838,11.479,23.256,11.21,22.77z M32.768,25.729c-0.252,1.313-1.058,3.354-1.646,4.844
			c-0.398,1.01-0.609,1.552-0.683,1.877l-0.066,0.302l0.114,0.287c0.283,0.71,0.711,1.908,0.772,2.351
			c0.001,0.009,0.096,0.858-0.649,1.716c-0.72,0.826-2.363,1.812-6.11,1.812c-3.747,0-5.391-0.986-6.11-1.812
			c-0.746-0.857-0.651-1.707-0.65-1.716c0.062-0.441,0.489-1.641,0.772-2.352l0.114-0.286L18.56,32.45
			c-0.072-0.326-0.284-0.869-0.683-1.881c-0.587-1.489-1.392-3.528-1.645-4.841c-0.422-2.198,0.379-4.575,2.145-6.358
			c1.513-1.528,4.933-1.868,6.123-1.871c1.166,0,4.539,0.339,6.139,1.886C32.72,21.399,33.104,23.982,32.768,25.729z M37.789,22.77
			c-0.263,0.479-1.974,0.07-3.238-0.592c-0.084-0.3-0.183-0.596-0.297-0.888c2.198,0.23,3.354,0.84,3.575,1.229
			C37.853,22.56,37.879,22.606,37.789,22.77z"/>
	</g>
</g>
</svg>
