<?xml version="1.0" encoding="utf-8"?>
<!-- Generator: Adobe Illustrator 15.0.0, SVG Export Plug-In . SVG Version: 6.00 Build 0)  -->
<!DOCTYPE svg PUBLIC "-//W3C//DTD SVG 1.1//EN" "http://www.w3.org/Graphics/SVG/1.1/DTD/svg11.dtd">
<svg version="1.1" id="Layer_1" xmlns="http://www.w3.org/2000/svg" xmlns:xlink="http://www.w3.org/1999/xlink" x="0px" y="0px"
	 width="49px" height="49px" viewBox="0 0 49 49" enable-background="new 0 0 49 49" xml:space="preserve">
<g>
	<path fill="#323232" d="M24.5,0C10.969,0,0,10.969,0,24.5C0,38.031,10.969,49,24.5,49C38.031,49,49,38.031,49,24.5
		C49,10.969,38.031,0,24.5,0z M24.5,47C12.093,47,2,36.906,2,24.5C2,12.093,12.093,2,24.5,2C36.906,2,47,12.093,47,24.5
		C47,36.906,36.906,47,24.5,47z"/>
	<path fill="#323232" d="M34.807,26.756c-0.45-9.493-9.197-18.693-9.586-19.097c-0.015-0.015-0.033-0.023-0.048-0.037
		c-0.037-0.034-0.076-0.062-0.118-0.09c-0.042-0.029-0.084-0.055-0.13-0.077c-0.018-0.009-0.032-0.022-0.051-0.03
		c-0.027-0.011-0.056-0.011-0.083-0.02c-0.048-0.015-0.095-0.027-0.145-0.034c-0.051-0.008-0.101-0.01-0.152-0.01
		c-0.045,0-0.089,0.002-0.134,0.008c-0.055,0.008-0.105,0.021-0.158,0.038c-0.025,0.008-0.052,0.008-0.076,0.018
		c-0.018,0.007-0.031,0.021-0.049,0.029c-0.047,0.022-0.09,0.049-0.133,0.079c-0.042,0.028-0.081,0.057-0.118,0.091
		c-0.015,0.013-0.033,0.021-0.046,0.036c-0.389,0.404-9.14,9.608-9.587,19.105c-0.008,0.067-0.017,0.133-0.011,0.202
		c-0.013,0.363-0.017,0.727-0.003,1.091c0.369,10.256,9.978,12.82,10.075,12.845c0.082,0.021,0.165,0.031,0.247,0.031
		s0.165-0.01,0.247-0.031c0.097-0.024,9.706-2.589,10.074-12.845c0.013-0.363,0.009-0.727-0.003-1.089
		C34.825,26.896,34.815,26.827,34.807,26.756z M16.783,23.25c2.219,2.058,5.368,3.521,6.717,4.091v4.552
		c-2.448-1.196-6.219-3.341-7.302-5.228C16.268,25.522,16.477,24.378,16.783,23.25z M18.807,18.154
		c1.513,1.688,3.602,2.646,4.693,3.059v3.94c-1.654-0.76-4.424-2.216-6.016-4.043C17.872,20.094,18.318,19.102,18.807,18.154z
		 M31.518,21.108c-1.59,1.824-4.362,3.283-6.018,4.044v-3.939c1.092-0.413,3.183-1.372,4.695-3.062
		C30.684,19.1,31.13,20.091,31.518,21.108z M25.5,19.047v-8.008c1.033,1.279,2.387,3.1,3.651,5.229
		C28.198,17.642,26.615,18.544,25.5,19.047z M25.5,31.893v-4.552c1.35-0.569,4.499-2.034,6.719-4.092
		c0.305,1.128,0.515,2.273,0.584,3.417C31.72,28.549,27.948,30.695,25.5,31.893z M23.5,19.05c-1.113-0.5-2.694-1.399-3.649-2.779
		c1.264-2.129,2.617-3.95,3.649-5.229V19.05z M16.383,29.825c2.328,1.983,5.69,3.629,7.117,4.281v4.403
		C21.408,37.605,17.338,35.178,16.383,29.825z M25.5,38.521v-4.415c1.428-0.653,4.792-2.3,7.121-4.284
		C31.671,35.233,27.601,37.635,25.5,38.521z"/>
</g>
</svg>
