<?xml version="1.0" encoding="utf-8"?>
<!-- Generator: Adobe Illustrator 15.0.0, SVG Export Plug-In . SVG Version: 6.00 Build 0)  -->
<!DOCTYPE svg PUBLIC "-//W3C//DTD SVG 1.1//EN" "http://www.w3.org/Graphics/SVG/1.1/DTD/svg11.dtd">
<svg version="1.1" xmlns="http://www.w3.org/2000/svg" xmlns:xlink="http://www.w3.org/1999/xlink" x="0px" y="0px" width="49px"
	 height="49px" viewBox="0 0 49 49" enable-background="new 0 0 49 49" xml:space="preserve">
<g id="Layer_1">
</g>
<g id="Layer_2">
	<g>
		<path fill="#323232" d="M24.5,0C10.969,0,0,10.969,0,24.5C0,38.031,10.969,49,24.5,49C38.031,49,49,38.031,49,24.5
			C49,10.969,38.031,0,24.5,0z M24.5,47C12.093,47,2,36.906,2,24.5C2,12.093,12.093,2,24.5,2C36.906,2,47,12.093,47,24.5
			C47,36.906,36.906,47,24.5,47z"/>
		<path fill="#323232" d="M24.5,7.625c-4.355,0-7.94,3.278-8.436,7.5H16v16.917h17V15.125h-0.063
			C32.44,10.903,28.855,7.625,24.5,7.625z M31,30.042H18v-9.257c0.275,0.337,0.705,0.631,1.542,0.631
			c1.292,0,2.125-0.713,2.125-1.625c0-0.375,0-0.875,0-0.875c0,0,0,0,0,0c0-0.472,0.382-0.854,0.854-0.854
			c0.472,0,0.854,0.382,0.854,0.854c0,0.009-0.005,0.017-0.005,0.025c0,0.007,0.005,0.01,0.005,0.017c0,0.833,0,3.292,0,3.292
			s-0.031,1.833,2.125,1.833c2.109,0,2.125-1.75,2.125-1.75v-2.25h0.001c0-0.002-0.001-0.003-0.001-0.005
			c0-0.742,0.602-1.344,1.344-1.344s1.344,0.602,1.344,1.344c0,0.031,0.021,0.088,0.021,0.088s0.034,0.609,0.667,0.894V30.042z"/>
		<path fill="#323232" d="M23,40.125c0,0.828,0.671,1.5,1.5,1.5c0.828,0,1.5-0.672,1.5-1.5V33h-3V40.125z"/>
	</g>
</g>
</svg>
