<?xml version="1.0" encoding="utf-8"?>
<!-- Generator: Adobe Illustrator 15.0.0, SVG Export Plug-In . SVG Version: 6.00 Build 0)  -->
<!DOCTYPE svg PUBLIC "-//W3C//DTD SVG 1.1//EN" "http://www.w3.org/Graphics/SVG/1.1/DTD/svg11.dtd">
<svg version="1.1" id="Layer_1" xmlns="http://www.w3.org/2000/svg" xmlns:xlink="http://www.w3.org/1999/xlink" x="0px" y="0px"
	 width="49px" height="49px" viewBox="0 0 49 49" enable-background="new 0 0 49 49" xml:space="preserve">
<g>
	<path fill="#323232" d="M24.5,0C10.969,0,0,10.969,0,24.5C0,38.031,10.969,49,24.5,49C38.031,49,49,38.031,49,24.5
		C49,10.969,38.031,0,24.5,0z M24.5,47C12.093,47,2,36.906,2,24.5C2,12.093,12.093,2,24.5,2C36.906,2,47,12.093,47,24.5
		C47,36.906,36.906,47,24.5,47z"/>
	<path fill="#323232" d="M28.938,13.125c0-2.774-2.257-5.031-5.031-5.031s-5.031,2.257-5.031,5.031v14.64
		c-1.281,1.322-2,3.067-2,4.923c0,3.929,3.196,7.125,7.125,7.125s7.125-3.196,7.125-7.125c0-1.942-0.802-3.791-2.188-5.126V13.125z
		 M29.125,32.688c0,2.83-2.295,5.125-5.125,5.125c-2.831,0-5.125-2.295-5.125-5.125c0-1.647,0.792-3.098,2-4.035V13.125
		c0-1.674,1.357-3.031,3.031-3.031c1.674,0,3.031,1.357,3.031,3.031v15.372C28.257,29.425,29.125,30.952,29.125,32.688z"/>
	<path fill="#323232" d="M25,29.559V13.188c0-0.552-0.447-1-1-1c-0.552,0-1,0.448-1,1v16.371c-1.163,0.413-2,1.512-2,2.816
		c0,1.657,1.343,3,3,3c1.657,0,3-1.343,3-3C27,31.07,26.163,29.972,25,29.559z"/>
	<rect x="31" y="12" fill="#323232" width="6" height="2"/>
	<rect x="31" y="16" fill="#323232" width="6" height="2"/>
	<rect x="31" y="20" fill="#323232" width="6" height="2"/>
	<rect x="31" y="24" fill="#323232" width="6" height="2"/>
</g>
</svg>
