<?xml version="1.0" encoding="utf-8"?>
<!-- Generator: Adobe Illustrator 15.0.0, SVG Export Plug-In . SVG Version: 6.00 Build 0)  -->
<!DOCTYPE svg PUBLIC "-//W3C//DTD SVG 1.1//EN" "http://www.w3.org/Graphics/SVG/1.1/DTD/svg11.dtd">
<svg version="1.1" id="Layer_1" xmlns="http://www.w3.org/2000/svg" xmlns:xlink="http://www.w3.org/1999/xlink" x="0px" y="0px"
	 width="32px" height="32px" viewBox="0 0 32 32" enable-background="new 0 0 32 32" xml:space="preserve">
<g>
	<path fill="#FFFFFF" d="M20.916,16c0,2.728-2.211,4.938-4.938,4.938S11.039,18.728,11.039,16c0-0.394,0.051-0.773,0.138-1.14
		h-0.897v6.838h11.396V14.86h-0.897C20.865,15.227,20.916,15.606,20.916,16z"/>
	<path fill="#FFFFFF" d="M15.978,18.659c1.466,0,2.659-1.193,2.659-2.659s-1.193-2.659-2.659-2.659
		c-1.466,0-2.659,1.193-2.659,2.659S14.511,18.659,15.978,18.659z"/>
	<rect x="18.637" y="10.302" fill="#FFFFFF" width="3.039" height="3.039"/>
	<path fill="#FFFFFF" d="M16,0C7.164,0,0,7.164,0,16c0,8.837,7.164,16,16,16c8.837,0,16-7.163,16-16C32,7.164,24.837,0,16,0z
		 M23.955,21.698c0,1.254-1.025,2.279-2.279,2.279H10.279C9.026,23.978,8,22.952,8,21.698V10.302c0-1.253,1.026-2.279,2.279-2.279
		h11.396c1.254,0,2.279,1.026,2.279,2.279V21.698z"/>
</g>
</svg>
