<?xml version="1.0" encoding="utf-8"?>
<!-- Generator: Adobe Illustrator 15.0.0, SVG Export Plug-In . SVG Version: 6.00 Build 0)  -->
<!DOCTYPE svg PUBLIC "-//W3C//DTD SVG 1.1//EN" "http://www.w3.org/Graphics/SVG/1.1/DTD/svg11.dtd">
<svg version="1.1" id="Layer_1" xmlns="http://www.w3.org/2000/svg" xmlns:xlink="http://www.w3.org/1999/xlink" x="0px" y="0px"
	 width="80px" height="140px" viewBox="0 0 80 140" enable-background="new 0 0 80 140" xml:space="preserve">
<g>
	<path fill="#E84D37" d="M40,7.101c15.622,0,28.285,12.664,28.285,28.286c0,5.112-1.362,9.902-3.734,14.041
		c4.503,0.643,7.971,4.506,7.971,9.188c0,5.133-4.16,9.293-9.293,9.293c-4.682,0-8.545-3.467-9.188-7.971
		c-0.353,0.201-0.709,0.396-1.07,0.583C51.959,66.781,46.545,71.566,40,71.566c-6.546,0-11.96-4.786-12.972-11.046
		c-0.361-0.187-0.717-0.381-1.069-0.582c-0.644,4.504-4.505,7.971-9.188,7.971c-5.132,0-9.292-4.161-9.292-9.293
		c0-4.682,3.466-8.544,7.97-9.188c-2.372-4.139-3.735-8.929-3.735-14.041C11.714,19.765,24.378,7.101,40,7.101 M40,0.101
		c-19.457,0-35.286,15.829-35.286,35.286c0,3.646,0.568,7.263,1.668,10.713c-3.619,3.016-5.903,7.552-5.903,12.515
		c0,8.984,7.309,16.294,16.292,16.294c3.157,0,6.141-0.925,8.672-2.529c3.681,3.846,8.86,6.187,14.557,6.187
		s10.875-2.341,14.556-6.187c2.531,1.604,5.516,2.529,8.673,2.529c8.984,0,16.293-7.31,16.293-16.294
		c0-4.962-2.284-9.499-5.903-12.516c1.099-3.45,1.667-7.067,1.667-10.713C75.285,15.93,59.456,0.101,40,0.101L40,0.101z"/>
</g>
<path fill="#E84D37" d="M63.229,78.908c-2.835,0-5.56-0.598-8.04-1.681c-0.371,0.3-0.761,0.574-1.149,0.851l0.525,0.525
	l-3.898,3.898l-1.673-1.673c-0.687,0.273-1.386,0.517-2.101,0.728l2.359,2.359l-3.898,3.898l-3.898-3.898l1.556-1.556
	c-0.989,0.122-1.989,0.206-3.011,0.206c-0.988,0-1.958-0.079-2.917-0.194l1.543,1.544l-3.898,3.898l-3.898-3.898l2.339-2.34
	c-0.716-0.209-1.417-0.451-2.104-0.724l-1.649,1.649l-3.898-3.898l0.49-0.489c-0.405-0.288-0.811-0.575-1.197-0.887
	c-2.48,1.083-5.204,1.681-8.039,1.681c-0.204,0-0.401-0.024-0.603-0.03c-0.069,0.531-0.032,1.083,0.16,1.622l20.375,57.125
	c0.024,0.068,0.059,0.128,0.087,0.193c0.03,0.07,0.058,0.139,0.092,0.206c0.07,0.14,0.15,0.271,0.237,0.397
	c0.029,0.042,0.054,0.087,0.084,0.129c0.125,0.166,0.262,0.32,0.412,0.459c0.032,0.03,0.069,0.055,0.103,0.084
	c0.125,0.107,0.254,0.205,0.392,0.294c0.058,0.037,0.118,0.07,0.179,0.104c0.138,0.077,0.279,0.145,0.426,0.202
	c0.038,0.015,0.07,0.038,0.108,0.052c0.02,0.007,0.04,0.009,0.059,0.016c0.127,0.043,0.258,0.074,0.391,0.103
	c0.055,0.012,0.109,0.029,0.164,0.038c0.185,0.03,0.373,0.048,0.562,0.048s0.377-0.018,0.562-0.048
	c0.057-0.009,0.113-0.027,0.17-0.04c0.13-0.027,0.259-0.058,0.384-0.101c0.021-0.007,0.041-0.009,0.061-0.016
	c0.04-0.014,0.072-0.037,0.111-0.053c0.145-0.058,0.285-0.124,0.421-0.2c0.062-0.034,0.123-0.068,0.183-0.106
	c0.136-0.088,0.265-0.186,0.388-0.291c0.034-0.03,0.072-0.056,0.105-0.086c0.15-0.14,0.287-0.294,0.412-0.46
	c0.03-0.04,0.054-0.084,0.082-0.125c0.088-0.128,0.169-0.261,0.24-0.401c0.033-0.066,0.062-0.134,0.09-0.201
	c0.028-0.066,0.064-0.128,0.089-0.197L63.672,80.5c0.192-0.539,0.229-1.091,0.16-1.622C63.63,78.884,63.433,78.908,63.229,78.908z
	 M49.252,94.541l-3.898,3.898l-3.898-3.898l3.898-3.898L49.252,94.541z M36.143,99.854l3.898-3.898l3.898,3.898l-3.898,3.898
	L36.143,99.854z M43.939,110.479l-3.898,3.898l-3.898-3.898l3.898-3.898L43.939,110.479z M40.041,85.33l3.898,3.898l-3.898,3.898
	l-3.898-3.898L40.041,85.33z M38.627,94.541l-3.898,3.898l-3.898-3.898l3.898-3.898L38.627,94.541z M23.724,80.397l0.38-0.38
	l3.898,3.898l-2.229,2.229L23.724,80.397z M26.517,88.229l2.899-2.899l3.898,3.898l-3.898,3.898l-1.791-1.791L26.517,88.229z
	 M29.311,96.061l0.105-0.105l3.898,3.898l-1.954,1.954L29.311,96.061z M33.516,107.853l-1.413-3.96l2.625-2.625l3.898,3.898
	l-3.898,3.898L33.516,107.853z M36.947,117.471l-1.863-5.223l3.543,3.543L36.947,117.471z M40,126.031l-2.31-6.476l2.351-2.351
	l2.29,2.29L40,126.031z M43.074,117.41l-1.619-1.619l3.415-3.415L43.074,117.41z M46.438,107.979l-1.085,1.085l-3.898-3.898
	l3.898-3.898l2.564,2.564L46.438,107.979z M48.661,101.747l-1.894-1.894l3.898-3.898L50.711,96L48.661,101.747z M52.329,91.464
	l-1.663,1.663l-3.898-3.898l3.898-3.898l2.838,2.838L52.329,91.464z M54.248,86.084l-2.168-2.168l3.898-3.898l0.319,0.319
	L54.248,86.084z"/>
</svg>
