<svg xmlns="http://www.w3.org/2000/svg" width="49" height="49" viewBox="0 0 49 49"><g fill="#323232"><path d="M24.5 0C10.969 0 0 10.969 0 24.5S10.969 49 24.5 49 49 38.031 49 24.5 38.031 0 24.5 0zm0 47C12.093 47 2 36.906 2 24.5 2 12.093 12.093 2 24.5 2 36.906 2 47 12.093 47 24.5 47 36.906 36.906 47 24.5 47z"/><path d="M28.938 13.125c0-2.774-2.257-5.031-5.031-5.031s-5.031 2.257-5.031 5.031v14.64a7.042 7.042 0 0 0-2 4.923c0 3.929 3.196 7.125 7.125 7.125s7.125-3.196 7.125-7.125a7.127 7.127 0 0 0-2.188-5.126V13.125zm.187 19.563a5.126 5.126 0 0 1-10.25 0c0-1.647.792-3.098 2-4.035V13.125a3.031 3.031 0 1 1 6.062 0v15.372a5.114 5.114 0 0 1 2.188 4.191z"/><path d="M25 29.559V13.188a1 1 0 1 0-2 0v16.371a2.99 2.99 0 0 0-2 2.816 3 3 0 1 0 6 0 2.99 2.99 0 0 0-2-2.816zM31 12h6v2h-6zM31 16h6v2h-6zM31 20h6v2h-6zM31 24h6v2h-6z"/></g></svg>