<?xml version="1.0" encoding="utf-8"?>
<!-- Generator: Adobe Illustrator 15.0.0, SVG Export Plug-In . SVG Version: 6.00 Build 0)  -->
<!DOCTYPE svg PUBLIC "-//W3C//DTD SVG 1.1//EN" "http://www.w3.org/Graphics/SVG/1.1/DTD/svg11.dtd">
<svg version="1.1" xmlns="http://www.w3.org/2000/svg" xmlns:xlink="http://www.w3.org/1999/xlink" x="0px" y="0px" width="32px"
	 height="32px" viewBox="0 0 32 32" enable-background="new 0 0 32 32" xml:space="preserve">
<g id="Layer_1">
</g>
<g id="Layer_2">
	<path fill="#FFFFFF" d="M16,0C7.164,0,0,7.164,0,16c0,8.837,7.164,16,16,16c8.837,0,16-7.163,16-16C32,7.164,24.837,0,16,0z
		 M23.944,12.809c-0.251,6.516-3.463,10.832-10.992,10.702c-0.14,0-0.205,0-0.233,0c-0.015,0-0.021,0-0.021,0
		c-0.029,0-0.094,0-0.232,0c-0.447,0-4.543-0.443-5.344-1.823c2.479,0.19,4.247-0.406,5.12-1.136
		c-1.048-0.289-2.923-0.461-3.251-2.848c0.384,0.104,0.618,0.221,1.299,0.113c-1.307-0.824-2.758-1.519-2.679-3.643
		c0.311,0.317,1.164,0.518,1.46,0.457c-0.768-0.233-2.149-3.244-0.974-4.781c1.984,1.79,4.075,3.482,7.804,3.643
		c0.227-2.214,1.24-3.699,3.168-4.325c1.84-0.479,3.255,0.26,3.901,1.138c0.737-0.224,1.453-0.466,2.193-0.685
		c-0.004,0.833-0.569,1.463-0.935,1.709c0.747,0.165,1.423-0.475,1.423-0.475C25.467,11.818,24.557,12.58,23.944,12.809z"/>
</g>
</svg>
