<?xml version="1.0" encoding="utf-8"?>
<!-- Generator: Adobe Illustrator 15.0.0, SVG Export Plug-In . SVG Version: 6.00 Build 0)  -->
<!DOCTYPE svg PUBLIC "-//W3C//DTD SVG 1.1//EN" "http://www.w3.org/Graphics/SVG/1.1/DTD/svg11.dtd">
<svg version="1.1" id="Layer_1" xmlns="http://www.w3.org/2000/svg" xmlns:xlink="http://www.w3.org/1999/xlink" x="0px" y="0px"
	 width="32px" height="32px" viewBox="0 0 32 32" enable-background="new 0 0 32 32" xml:space="preserve">
<g>
	<path fill="#FFFFFF" d="M16.637,14.495c0.402-0.019,0.719-0.082,0.951-0.188c0.326-0.145,0.54-0.33,0.641-0.559
		c0.101-0.229,0.15-0.496,0.15-0.797c0-0.232-0.058-0.465-0.174-0.697c-0.116-0.232-0.322-0.405-0.617-0.517
		c-0.264-0.1-0.592-0.155-0.984-0.165c-0.392-0.009-0.943-0.014-1.652-0.014h-0.339v2.965h0.565
		C15.749,14.523,16.235,14.514,16.637,14.495z"/>
	<path fill="#FFFFFF" d="M18.118,17.084c-0.282-0.081-0.672-0.125-1.166-0.132c-0.494-0.006-1.012-0.009-1.55-0.009h-0.79v3.493
		h0.264c1.014,0,1.74-0.003,2.18-0.009c0.438-0.007,0.843-0.088,1.212-0.245c0.377-0.157,0.633-0.364,0.774-0.625
		s0.214-0.562,0.214-0.9c0-0.446-0.088-0.788-0.261-1.03C18.825,17.386,18.531,17.204,18.118,17.084z"/>
	<path fill="#FFFFFF" d="M16,0C7.164,0,0,7.164,0,16c0,8.837,7.164,16,16,16c8.837,0,16-7.163,16-16C32,7.164,24.837,0,16,0z
		 M22.602,20.531c-0.273,0.533-0.646,0.976-1.124,1.327c-0.552,0.415-1.161,0.71-1.823,0.886s-1.501,0.264-2.519,0.264h-6.121V8.987
		h5.443c1.13,0,1.957,0.038,2.48,0.113c0.524,0.076,1.045,0.242,1.561,0.5c0.533,0.27,0.929,0.632,1.189,1.087
		c0.26,0.455,0.392,0.975,0.392,1.558c0,0.678-0.179,1.278-0.536,1.795c-0.358,0.518-0.863,0.92-1.517,1.208v0.075
		c0.917,0.182,1.642,0.559,2.179,1.13c0.537,0.571,0.807,1.325,0.807,2.261C23.013,19.392,22.875,19.997,22.602,20.531z"/>
</g>
</svg>
